<svg id="Layer_1" data-name="Layer 1" xmlns="http://www.w3.org/2000/svg" viewBox="0 0 302.98475 197.96812">
  <defs>
    <style>
      .cls-1, .cls-2 {
        fill: none;
        stroke: #000;
        stroke-miterlimit: 10;
      }

      .cls-1 {
        stroke-width: 4px;
      }

      .cls-2 {
        stroke-width: 3px;
      }
    </style>
  </defs>
  <g>
    <circle class="cls-1" cx="76.9547" cy="69.5" r="36.81818"/>
    <rect class="cls-1" x="73.88652" y="2" width="6.13636" height="24.54545" rx="1"/>
    <rect class="cls-1" x="73.88652" y="112.45455" width="6.13636" height="24.54545" rx="1"/>
    <rect class="cls-1" x="7177.15909" y="7137.72727" width="6.13636" height="24.54545" rx="1" transform="translate(-7017.81802 7249.72727) rotate(-90)"/>
    <rect class="cls-1" x="7066.70454" y="7137.72727" width="6.13636" height="24.54545" rx="1" transform="translate(-7128.27257 7139.27272) rotate(-90)"/>
    <rect class="cls-1" x="7085.11363" y="7103.97727" width="6.13636" height="18.40909" rx="1.00127" transform="translate(-10001.744 15.00411) rotate(-45)"/>
    <rect class="cls-1" x="7078.97727" y="7183.75" width="18.40909" height="6.13636" rx="1.00127" transform="translate(-10053.8128 36.575) rotate(-45.00002)"/>
    <path class="cls-1" d="M7153.6149,7110.11364h16.40656a1.00127,1.00127,0,0,1,1.00127,1.00127v4.13383a1.00126,1.00126,0,0,1-1.00126,1.00126H7153.6149a1.00127,1.00127,0,0,1-1.00127-1.00127v-4.13383A1.00127,1.00127,0,0,1,7153.6149,7110.11364Z" transform="translate(-9980.17641 67.07286) rotate(-45)"/>
    <rect class="cls-1" x="7158.74999" y="7177.61364" width="6.13636" height="18.40909" rx="1.00127" transform="translate(-10032.24519 88.6405) rotate(-45)"/>
  </g>
  <path class="cls-2" d="M7334.12163,7137.4105a16.36818,16.36818,0,0,1-12.40674,15.88282h-75.50241a14.74226,14.74226,0,0,1-10.88205-12.61546v-3.28548a14.422,14.422,0,0,1,.40842-2.17823,14.759,14.759,0,0,1,10.2921-10.38284v-.00908a24.87856,24.87856,0,0,1,47.22187-14.113,13.743,13.743,0,0,1,24.48682,8.57673,12.441,12.441,0,0,1-.118,1.75165h.118a16.35493,16.35493,0,0,1,16.22771,14.17655A14.63684,14.63684,0,0,1,7334.12163,7137.4105Z" transform="translate(-7048.04529 -7080.5)"/>
  <path class="cls-2" d="M7338.2638,7197.83712a10.35991,10.35991,0,0,1-7.8526,10.05271h-47.78773a9.33081,9.33081,0,0,1-6.88757-7.9847v-2.07947a9.12859,9.12859,0,0,1,.2585-1.37868,9.34143,9.34143,0,0,1,6.51418-6.5716v-.00575a15.74639,15.74639,0,0,1,29.88813-8.93255,8.69835,8.69835,0,0,1,15.49844,5.42848,7.87394,7.87394,0,0,1-.07468,1.10866h.07468a10.35153,10.35153,0,0,1,10.271,8.97276A9.2646,9.2646,0,0,1,7338.2638,7197.83712Z" transform="translate(-7048.04529 -7080.5)"/>
  <path d="M7350.25708,7219.05324a43.29114,43.29114,0,0,0-32.84318-1.67037c-10.55612,3.74246-19.3623,10.81564-28.64293,16.859-9.15734,5.96306-20.18707,11.37783-31.43525,9.98572-11.51949-1.42569-19.08072-10.8017-26.42323-18.81509-6.75865-7.37618-14.60121-14.7338-25.22994-14.87188-5.82248-.07564-11.43908,1.98608-16.5974,4.51422a127.04844,127.04844,0,0,0-15.43833,9.14718c-19.19327,13.05431-35.74613,29.9294-56.23573,41.08179-10.11442,5.50522-21.407,9.62217-33.00265,10.12576-10.8576.47154-22.184-2.62759-29.60544-10.96713a25.67014,25.67014,0,0,1-4.00779-6.11106c-.82589-1.7438-3.41318-.223-2.59042,1.51416,4.36784,9.22233,13.655,15.28143,23.4132,17.48443,11.59771,2.61828,23.85668.44189,34.82919-3.70439,21.55207-8.14407,38.71045-24.09073,56.64056-37.99615,4.87568-3.78126,9.85308-7.442,15.03-10.8023a96.47568,96.47568,0,0,1,16.053-8.79454c5.35119-2.16542,11.168-3.30878,16.8364-1.72736,4.91739,1.3719,9.05818,4.49019,12.7009,7.9675,7.75439,7.40228,13.97326,16.9537,23.734,21.96443,10.1495,5.21034,21.65567,3.25544,31.67859-1.215,10.32534-4.60533,18.96-12.04008,28.65272-17.735,10.02387-5.88953,21.18145-9.04859,32.767-6.44774a39.6044,39.6044,0,0,1,8.20263,2.80429c1.73689.8177,3.26157-1.76776,1.51416-2.59041Z" transform="translate(-7048.04529 -7080.5)"/>
  <path d="M7233.51462,7230.96365c8.21211-3.88336,16.63641-7.62647,25.54962-9.57733a33.27628,33.27628,0,0,1,13.59841-.47568,80.42916,80.42916,0,0,1,11.84458,3.81117c4.32454,1.58466,8.73854,2.94989,13.38053,3.05664,1.93125.04441,1.93062-2.9556,0-3-8.53256-.19623-16.0032-5.03133-24.22173-6.71965-9.22526-1.89512-18.6616.81552-27.26568,4.06407-4.89759,1.84913-9.66937,4.01339-14.39988,6.25037-1.74425.82483-.2234,3.41207,1.51415,2.59041Z" transform="translate(-7048.04529 -7080.5)"/>
  <path d="M7050.97405,7259.82911a81.41115,81.41115,0,0,1,33.68147-20.18943,83.29674,83.29674,0,0,1,40.2249-2.3835c8.95295,1.71553,17.60721,4.64883,26.41181,6.95869a1.50129,1.50129,0,0,0,.79752-2.89284c-8.0419-2.10977-15.95139-4.7354-24.086-6.48507a86.49547,86.49547,0,0,0-21.5984-1.96131,88.24948,88.24948,0,0,0-39.21968,10.98165,81.86079,81.86079,0,0,0-18.33294,13.85049,1.50086,1.50086,0,0,0,2.12132,2.12132Z" transform="translate(-7048.04529 -7080.5)"/>
  <path d="M7297.83813,7227.82533h4.97653a1.5,1.5,0,0,0,0-3h-4.97653a1.5,1.5,0,0,0,0,3Z" transform="translate(-7048.04529 -7080.5)"/>
  <path class="cls-2" d="M7271.52654,7183.443a11.99428,11.99428,0,0,1-9.09141,11.63861h-55.32667a10.80286,10.80286,0,0,1-7.97415-9.24436v-2.40753a10.56985,10.56985,0,0,1,.29929-1.59617,10.81512,10.81512,0,0,1,7.54184-7.60833v-.00666a18.23052,18.23052,0,0,1,34.60325-10.34173,10.07059,10.07059,0,0,1,17.94345,6.28486,9.11658,9.11658,0,0,1-.08646,1.28357h.08646a11.98458,11.98458,0,0,1,11.89135,10.38829A10.72668,10.72668,0,0,1,7271.52654,7183.443Z" transform="translate(-7048.04529 -7080.5)"/>
</svg>
