<svg id="Layer_1" data-name="Layer 1" xmlns="http://www.w3.org/2000/svg" viewBox="0 0 1000 325">
  <defs>
    <style>
      .cls-1 {
        fill: #ffcc80;
      }
    </style>
  </defs>
  <path class="cls-1" d="M1000,0c0,82.84-223.86,150-500,150S0,82.84,0,0Z"/>
  <rect class="cls-1" x="485" y="175" width="30" height="150" rx="14.99998"/>
  <path class="cls-1" d="M250,145h0a15,15,0,0,1,15,15V280a15,15,0,0,1-15,15h0a15,15,0,0,1-15-15V160A15,15,0,0,1,250,145Z" transform="translate(143.4938 -95.52564) rotate(30.00003)"/>
  <path class="cls-1" d="M750,145h0a15,15,0,0,1,15,15V280a15,15,0,0,1-15,15h0a15,15,0,0,1-15-15V160a15,15,0,0,1,15-15Z" transform="translate(-9.5191 404.47422) rotate(-29.99999)"/>
</svg>
