<svg id="Layer_1" data-name="Layer 1" xmlns="http://www.w3.org/2000/svg" viewBox="0 0 141.25684 64"><defs><style>.cls-1{fill:#f7931e;}.cls-2{fill:#fff;}</style></defs><circle class="cls-1" cx="32" cy="32" r="31.5"/><path class="cls-1" d="M61.18555,9a31,31,0,1,1-31,31,31.03511,31.03511,0,0,1,31-31m0-1a32,32,0,1,0,32,32,32,32,0,0,0-32-32Z" transform="translate(-29.18555 -8)"/><path class="cls-2" d="M44.59473,47.85352l.82422-.82422a9.70847,9.70847,0,0,0,7.41748,3.44726c3.9707,0,6.51806-2.17285,6.51806-5.32031,0-3.2959-2.09814-4.34473-4.57031-5.46875l-3.8208-1.72266c-2.09815-.93652-5.02-2.39843-5.02-6.06933,0-3.52149,2.99707-5.919,6.96777-5.919a9.171,9.171,0,0,1,6.74268,2.92188l-.749.82422a7.88126,7.88126,0,0,0-5.99366-2.62207c-3.44629,0-5.769,1.873-5.769,4.71972,0,3.07227,2.585,4.2334,4.3457,5.02051l3.8208,1.72266c2.73487,1.23632,5.24463,2.69726,5.24463,6.51855,0,3.74609-3.07177,6.51758-7.71679,6.51758A10.51224,10.51224,0,0,1,44.59473,47.85352Z" transform="translate(-29.18555 -8)"/><path class="cls-2" d="M64.146,42.23438c0-5.99317,3.67089-9.43946,7.9414-9.43946s7.9419,3.44629,7.9419,9.43946c0,5.91894-3.67139,9.36523-7.9419,9.36523S64.146,48.15332,64.146,42.23438Zm14.68457,0c0-4.94434-2.92237-8.39063-6.74317-8.39063S65.34473,37.29,65.34473,42.23438c0,4.94531,2.92187,8.3164,6.74267,8.3164S78.83057,47.17969,78.83057,42.23438Z" transform="translate(-29.18555 -8)"/><path class="cls-2" d="M85.645,49.20215V24.10352h1.124V49.42676c0,.75.29932,1.124.749,1.124a2.92436,2.92436,0,0,0,.67431-.07422l.22461.97364a3.3175,3.3175,0,0,1-.97363.14941C86.31934,51.59961,85.645,50.92578,85.645,49.20215Z" transform="translate(-29.18555 -8)"/><path class="cls-1" d="M95.458,49.35254H95.3833l-.1499,1.79785h-.97412V24.10352h1.124v8.0166l-.07519,3.59668c1.873-1.57325,4.1206-2.92188,6.36767-2.92188,4.8711,0,7.19336,3.5957,7.19336,9.14063,0,6.06836-3.67187,9.66406-7.94189,9.66406A9.53858,9.53858,0,0,1,95.458,49.35254Zm12.21191-7.417c0-4.57032-1.64844-8.0918-6.06836-8.0918-1.873,0-3.9707,1.124-6.21826,3.14648V48.0791a9.166,9.166,0,0,0,5.61865,2.47168C104.89844,50.55078,107.66992,46.95508,107.66992,41.93555Z" transform="translate(-29.18555 -8)"/><path class="cls-1" d="M114.41016,33.24414h.97363l.14941,3.37207h.0752c1.19824-2.17285,2.92187-3.82129,5.09472-3.82129a3.57544,3.57544,0,0,1,1.72266.375l-.29883,1.04883a3.67559,3.67559,0,0,0-1.57422-.2998c-1.64746,0-3.5957,1.27343-5.01953,4.79492V51.15039h-1.123Z" transform="translate(-29.18555 -8)"/><path class="cls-1" d="M123.92285,42.23438c0-5.84376,3.7461-9.43946,7.7168-9.43946,4.12109,0,6.74316,2.92188,6.74316,8.24121a6.82237,6.82237,0,0,1-.07519,1.19825H125.12207c0,4.79492,2.77246,8.3164,7.042,8.3164a8.1557,8.1557,0,0,0,4.94532-1.64844l.52441.97461a9.521,9.521,0,0,1-5.54395,1.72266C127.59473,51.59961,123.92285,48.0791,123.92285,42.23438Zm13.33594-1.04883c0-4.94434-2.24707-7.3418-5.61914-7.3418-3.2207,0-6.14356,2.77246-6.51758,7.3418Z" transform="translate(-29.18555 -8)"/><path class="cls-1" d="M143.39844,33.24414h.97461l.14941,2.84766h.0752c1.873-1.873,3.74609-3.29688,6.21875-3.29688,3.67089,0,5.39355,2.17285,5.39355,6.81738V51.15039h-1.12305V39.7627c0-3.97071-1.27441-5.919-4.3457-5.919-2.24805,0-3.89551,1.19824-6.21875,3.5957V51.15039h-1.124Z" transform="translate(-29.18555 -8)"/><path class="cls-1" d="M163.47461,46.43066V34.293h-2.84668v-.89844l2.84668-.15039L163.625,28h.97363v5.24414H169.918V34.293h-5.31934V46.58008c0,2.32226.52442,3.9707,3.14649,3.9707a6.65087,6.65087,0,0,0,2.32226-.59961l.375.97461a10.39361,10.39361,0,0,1-2.77246.67383C164.374,51.59961,163.47461,49.502,163.47461,46.43066Z" transform="translate(-29.18555 -8)"/></svg>