<?xml version="1.0" encoding="utf-8"?>
<!-- Generator: Adobe Illustrator 26.0.3, SVG Export Plug-In . SVG Version: 6.00 Build 0)  -->
<svg version="1.1" id="Layer_1" xmlns="http://www.w3.org/2000/svg" xmlns:xlink="http://www.w3.org/1999/xlink" x="0px" y="0px"
	 viewBox="0 0 512 512" style="enable-background:new 0 0 512 512;" xml:space="preserve">
<style type="text/css">
	.st0{fill:#31C0D8;}
	.st1{fill:#A7A9AC;}
	.st2{fill:#E6E7E8;}
	.st3{fill:#F4661E;}
	.st4{fill:#FFD248;}
	.st5{fill:#231F20;}
	.st6{font-family:'Rockwell-ExtraBold';}
	.st7{font-size:91px;}
</style>
<circle class="st0" cx="247.9" cy="210.2" r="167"/>
<path class="st1" d="M447.2,167.1v16.2c0,5.9-4.9,10.8-10.8,10.8h-21.5H361h-21.5c-5.9,0-10.8-4.9-10.8-10.8v-16.2
	c0-5.9,4.9-10.8,10.8-10.8h97C442.4,156.3,447.2,161.2,447.2,167.1z"/>
<g>
	<rect x="312.6" y="441.8" class="st2" width="150.8" height="59.3"/>
	<polygon class="st2" points="361,247.9 361,194.1 414.9,194.1 414.9,247.9 463.4,247.9 463.4,301.8 312.6,301.8 312.6,247.9 	"/>
</g>
<rect x="312.6" y="301.8" class="st3" width="150.8" height="140.1"/>
<path class="st4" d="M221,70.2c20.8,0,37.7,16.9,37.7,37.7c0,20.8-16.9,37.7-37.7,37.7s-37.7-16.9-37.7-37.7
	C183.3,87.1,200.2,70.2,221,70.2z"/>
<g>
	<path class="st5" d="M59.5,210.2c0-103.9,84.5-188.4,188.4-188.4c70.7,0,134.9,39,167.4,101.9l19.4-10C398.4,43.5,326.8,0,247.9,0
		C191.8,0,139,21.9,99.3,61.6S37.7,154,37.7,210.2c0,56.2,21.9,109,61.6,148.7c39.7,39.7,92.5,61.6,148.7,61.6v-21.8
		c-56.4,0-107.1-24.9-141.7-64.4h179.4v-21.8H89.7C70.6,283,59.5,247.9,59.5,210.2z"/>
	<path class="st5" d="M463.4,237h-37.6V205h10.6c12,0,21.7-9.7,21.7-21.7v-16.2c0-12-9.7-21.7-21.7-21.7h-97
		c-12,0-21.7,9.7-21.7,21.7v16.2c0,12,9.7,21.7,21.7,21.7h10.6V237h-37.6c-6,0-10.9,4.9-10.9,10.9v253.2c0,6,4.9,10.9,10.9,10.9
		h150.8c6,0,10.9-4.9,10.9-10.9V247.9C474.3,241.9,469.4,237,463.4,237z M339.6,167.2h96.7l0,15.9h-96.7V167.2z M361,258.8H388V237
		h-16V205H404v43c0,6,4.9,10.9,10.9,10.9h37.6v32.1h-129v-32.1L361,258.8L361,258.8z M452.5,312.7v118.3h-129V312.7H452.5z
		 M323.5,490.2v-37.5h129v37.5H323.5z"/>
	<path class="st5" d="M262.2,82.1l9.6-9.6l-15.4-15.4l-9.6,9.6c-4.5-2.8-9.5-4.9-14.9-6.2V43.2h-21.8v17.3
		c-5.3,1.2-10.4,3.3-14.9,6.2l-9.6-9.6l-15.4,15.4l9.6,9.6c-2.8,4.5-4.9,9.5-6.2,14.9h-17.3v21.8h17.3c1.2,5.3,3.3,10.4,6.2,14.9
		l-9.6,9.6l15.4,15.4l9.6-9.6c4.5,2.8,9.5,4.9,14.9,6.2v17.3h21.8v-17.3c5.3-1.2,10.4-3.3,14.9-6.2l9.6,9.6l15.4-15.4l-9.6-9.6
		c2.8-4.5,4.9-9.5,6.2-14.9h17.3V97h-17.3C267.1,91.6,265,86.6,262.2,82.1z M221,134.7c-14.8,0-26.8-12-26.8-26.8s12-26.8,26.8-26.8
		s26.8,12,26.8,26.8S235.8,134.7,221,134.7z"/>
	<rect x="414.9" y="393.2" class="st5" width="21.5" height="21.8"/>
	<rect x="382.6" y="393.2" class="st5" width="21.5" height="21.8"/>
	<rect x="371.8" y="360.9" class="st5" width="64.6" height="21.8"/>
</g>
<text transform="matrix(1 0 0 1 109.0649 294.839)" class="st5 st6 st7">50+</text>
</svg>
