<svg id="Layer_1" data-name="Layer 1" xmlns="http://www.w3.org/2000/svg" viewBox="0 0 436.58493 512"><defs><style>.cls-1{fill:#31c0d8;}.cls-2{fill:#a7a9ac;}.cls-3{fill:#e6e7e8;}.cls-4{fill:#f4661e;}.cls-5{fill:#ffd248;}.cls-6{fill:#231f20;}</style></defs><circle class="cls-1" cx="210.21401" cy="210.215" r="166.99201"/><path class="cls-2" d="M447.232,167.118v16.161a10.80788,10.80788,0,0,1-10.775,10.773H339.495a10.80851,10.80851,0,0,1-10.775-10.773V167.118a10.80723,10.80723,0,0,1,10.775-10.773h96.961A10.80807,10.80807,0,0,1,447.232,167.118Z" transform="translate(-37.707)"/><rect class="cls-3" x="274.85699" y="441.83899" width="150.82602" height="59.258"/><polygon class="cls-3" points="323.335 247.92 323.335 194.052 377.203 194.052 377.203 247.92 425.684 247.92 425.684 301.787 274.855 301.787 274.855 247.92 323.335 247.92"/><rect class="cls-4" x="274.85699" y="301.78299" width="150.82602" height="140.056"/><path class="cls-5" d="M220.986,70.154a37.7085,37.7085,0,1,1-37.708,37.709A37.75448,37.75448,0,0,1,220.986,70.154Z" transform="translate(-37.707)"/><path class="cls-6" d="M59.51,210.211c0-103.89,84.52-188.409,188.411-188.409A188.01349,188.01349,0,0,1,415.367,123.655l19.354-10.037A210.27061,210.27061,0,1,0,247.92,420.424V398.622a188.01094,188.01094,0,0,1-141.707-64.387H285.628V312.433H89.724A187.29476,187.29476,0,0,1,59.51,210.211Z" transform="translate(-37.707)"/><path class="cls-6" d="M463.391,237.019h-37.58V204.953h10.646a21.69971,21.69971,0,0,0,21.676-21.674V167.118a21.69908,21.69908,0,0,0-21.676-21.674H339.496a21.69972,21.69972,0,0,0-21.676,21.674v16.161a21.69908,21.69908,0,0,0,21.676,21.674h10.646v32.066h-37.58a10.90159,10.90159,0,0,0-10.901,10.901V501.099A10.9016,10.9016,0,0,0,312.562,512h150.829a10.901,10.901,0,0,0,10.901-10.901V247.92A10.90148,10.90148,0,0,0,463.391,237.019ZM339.623,167.245h96.708l.025,15.906H339.623Zm21.419,91.576h26.934V237.019H371.943V204.953h32.066V247.92a10.90157,10.90157,0,0,0,10.901,10.901h37.58v32.065H323.463V258.821l37.579,0Zm91.448,53.867V430.942H323.463V312.688ZM323.463,490.198V452.745H452.49v37.453Z" transform="translate(-37.707)"/><path class="cls-6" d="M262.172,82.093l9.616-9.616L256.371,57.06l-9.616,9.616a48.2861,48.2861,0,0,0-14.869-6.174V43.222H210.084v17.28a48.31073,48.31073,0,0,0-14.869,6.174l-9.616-9.616L170.182,72.477l9.616,9.616a48.34027,48.34027,0,0,0-6.174,14.87H156.343v21.802h17.281a48.32066,48.32066,0,0,0,6.174,14.869l-9.616,9.616,15.417,15.417,9.616-9.616a48.31,48.31,0,0,0,14.869,6.174v17.28h21.802v-17.28a48.35938,48.35938,0,0,0,14.869-6.174l9.616,9.616,15.417-15.417-9.615-9.616a48.30822,48.30822,0,0,0,6.173-14.869h17.28V96.963h-17.28A48.306,48.306,0,0,0,262.172,82.093ZM220.986,134.67a26.8075,26.8075,0,1,1,26.807-26.807A26.83663,26.83663,0,0,1,220.986,134.67Z" transform="translate(-37.707)"/><rect class="cls-6" x="377.207" y="393.23199" width="21.547" height="21.802"/><rect class="cls-6" x="344.88501" y="393.23199" width="21.547" height="21.802"/><rect class="cls-6" x="334.104" y="360.91" width="64.64301" height="21.802"/><path class="cls-6" d="M114.85986,265.1084l22.67578-1.7002q.56689,13.98341,13.03858,13.9834,5.41626,0,8.0625-2.96094a10.54486,10.54486,0,0,0,2.58252-7.18066q0-10.70655-14.29834-11.21191V241.80273a14.81077,14.81077,0,0,0,8.31445-2.58252,8.37681,8.37681,0,0,0,3.84229-7.4956,8.65346,8.65346,0,0,0-2.51953-6.48779,9.61279,9.61279,0,0,0-6.80274-2.39356q-9.00805,0-9.70019,9.95215l-23.6836-1.25977q.75587-13.10082,10.2041-19.58935,9.38452-6.48707,25.63623-6.48779,17.32106,0,25.95118,7.05468,8.62866,7.11841,8.62939,17.51075a17.9407,17.9407,0,0,1-3.65332,11.08593A18.70684,18.70684,0,0,1,173.25,247.9126a20.66929,20.66929,0,0,1,12.28271,7.24365,20.88723,20.88723,0,0,1,4.40918,13.417,22.87852,22.87852,0,0,1-10.45605,19.84082q-10.45679,7.24512-27.52588,7.24414-17.1958,0-26.959-7.49609Q115.36377,280.731,114.85986,265.1084Z" transform="translate(-37.707)"/><path class="cls-6" d="M204.49219,250.55811q0-21.47827,11.14892-33.25782Q226.79,205.45923,242.15869,205.4585q15.999,0,26.896,12.21972,10.834,12.22047,10.834,32.87989,0,21.73169-11.21289,33.38427-11.21191,11.71582-26.51709,11.71582-15.936,0-26.83252-12.21972Q204.49146,271.28173,204.49219,250.55811Zm28.53369,0q0,16.44066,2.45654,21.479,2.45582,5.10206,6.80322,5.10254,4.40625,0,6.73829-5.35449,2.332-5.22657,2.332-21.22705,0-16.62891-2.457-21.605Q246.3794,224.04,242.15869,224.04q-4.15722,0-6.61328,4.91308Q233.02514,233.92994,233.02588,250.55811Z" transform="translate(-37.707)"/></svg>