<svg id="Layer_1" data-name="Layer 1" xmlns="http://www.w3.org/2000/svg" viewBox="0 0 436.58493 512"><defs><style>.cls-1{fill:#31c0d8;}.cls-2{fill:#a7a9ac;}.cls-3{fill:#e6e7e8;}.cls-4{fill:#f4661e;}.cls-5{fill:#ffd248;}.cls-6{fill:#231f20;}</style></defs><circle class="cls-1" cx="210.21401" cy="210.215" r="166.99201"/><path class="cls-2" d="M447.232,167.118v16.161a10.80788,10.80788,0,0,1-10.775,10.773H339.495a10.80851,10.80851,0,0,1-10.775-10.773V167.118a10.80723,10.80723,0,0,1,10.775-10.773h96.961A10.80807,10.80807,0,0,1,447.232,167.118Z" transform="translate(-37.707)"/><rect class="cls-3" x="274.85699" y="441.83899" width="150.82602" height="59.258"/><polygon class="cls-3" points="323.335 247.92 323.335 194.052 377.203 194.052 377.203 247.92 425.684 247.92 425.684 301.787 274.855 301.787 274.855 247.92 323.335 247.92"/><rect class="cls-4" x="274.85699" y="301.78299" width="150.82602" height="140.056"/><path class="cls-5" d="M220.986,70.154a37.7085,37.7085,0,1,1-37.708,37.709A37.75448,37.75448,0,0,1,220.986,70.154Z" transform="translate(-37.707)"/><path class="cls-6" d="M59.51,210.211c0-103.89,84.52-188.409,188.411-188.409A188.01349,188.01349,0,0,1,415.367,123.655l19.354-10.037A210.27061,210.27061,0,1,0,247.92,420.424V398.622a188.01094,188.01094,0,0,1-141.707-64.387H285.628V312.433H89.724A187.29476,187.29476,0,0,1,59.51,210.211Z" transform="translate(-37.707)"/><path class="cls-6" d="M463.391,237.019h-37.58V204.953h10.646a21.69971,21.69971,0,0,0,21.676-21.674V167.118a21.69908,21.69908,0,0,0-21.676-21.674H339.496a21.69972,21.69972,0,0,0-21.676,21.674v16.161a21.69908,21.69908,0,0,0,21.676,21.674h10.646v32.066h-37.58a10.90159,10.90159,0,0,0-10.901,10.901V501.099A10.9016,10.9016,0,0,0,312.562,512h150.829a10.901,10.901,0,0,0,10.901-10.901V247.92A10.90148,10.90148,0,0,0,463.391,237.019ZM339.623,167.245h96.708l.025,15.906H339.623Zm21.419,91.576h26.934V237.019H371.943V204.953h32.066V247.92a10.90157,10.90157,0,0,0,10.901,10.901h37.58v32.065H323.463V258.821l37.579,0Zm91.448,53.867V430.942H323.463V312.688ZM323.463,490.198V452.745H452.49v37.453Z" transform="translate(-37.707)"/><path class="cls-6" d="M262.172,82.093l9.616-9.616L256.371,57.06l-9.616,9.616a48.2861,48.2861,0,0,0-14.869-6.174V43.222H210.084v17.28a48.31073,48.31073,0,0,0-14.869,6.174l-9.616-9.616L170.182,72.477l9.616,9.616a48.34027,48.34027,0,0,0-6.174,14.87H156.343v21.802h17.281a48.32066,48.32066,0,0,0,6.174,14.869l-9.616,9.616,15.417,15.417,9.616-9.616a48.31,48.31,0,0,0,14.869,6.174v17.28h21.802v-17.28a48.35938,48.35938,0,0,0,14.869-6.174l9.616,9.616,15.417-15.417-9.615-9.616a48.30822,48.30822,0,0,0,6.173-14.869h17.28V96.963h-17.28A48.306,48.306,0,0,0,262.172,82.093ZM220.986,134.67a26.8075,26.8075,0,1,1,26.807-26.807A26.83663,26.83663,0,0,1,220.986,134.67Z" transform="translate(-37.707)"/><rect class="cls-6" x="377.207" y="393.23199" width="21.547" height="21.802"/><rect class="cls-6" x="344.88501" y="393.23199" width="21.547" height="21.802"/><rect class="cls-6" x="334.104" y="360.91" width="64.64301" height="21.802"/><path class="cls-6" d="M169.65967,267.43945h18.14062l-.75586,27.39942h-69.728q-.12672-2.64551-.126-2.708a45.021,45.021,0,0,1,5.291-21.91992,45.50905,45.50905,0,0,1,7.4956-9.88965,89.93332,89.93332,0,0,1,11.65283-9.88916q11.58912-8.56568,14.92823-12.3457a12.1338,12.1338,0,0,0,3.33837-7.87354,8.9225,8.9225,0,0,0-2.26757-6.29883q-2.26758-2.45654-6.80274-2.45654-9.70092,0-9.70019,12.28271l-22.54981-.69287q.69214-15.05346,10.01514-21.353,9.38452-6.23584,23.68359-6.23584,15.62037,0,25.32129,7.18066,9.69947,7.24438,9.7002,18.89648a22.192,22.192,0,0,1-4.91309,13.85743q-5.03979,6.36255-19.21142,13.60595-11.46461,5.79492-15.36915,8.75489a21.97752,21.97752,0,0,0-6.04687,6.99218h27.58887Z" transform="translate(-37.707)"/><path class="cls-6" d="M202.98047,271.28125l22.80176-1.44824q3.02343,7.18066,11.65283,7.18066a13.5428,13.5428,0,0,0,8.62988-2.77148q3.40137-2.77149,3.40039-8.69239,0-5.79492-3.40039-8.5039a12.9163,12.9163,0,0,0-8.0625-2.64551,15.50162,15.50162,0,0,0-11.84228,5.165l-19.08545-6.73975,2.6455-45.60351h64.563V230.1499H259.48047l-2.07813-5.354H226.09717l-.75586,17.38476q8.43969-5.291,20.09277-5.291,14.23536,0,23.55811,7.62158,9.31934,7.62231,9.32226,20.9126a27.55678,27.55678,0,0,1-9.82617,21.60449q-9.89062,8.63087-27.52685,8.62988-15.49367,0-25.63526-6.55078A26.74622,26.74622,0,0,1,202.98047,271.28125Z" transform="translate(-37.707)"/></svg>