<svg id="Layer_1" data-name="Layer 1" xmlns="http://www.w3.org/2000/svg" viewBox="0 0 436.58493 512"><defs><style>.cls-1{fill:#31c0d8;}.cls-2{fill:#a7a9ac;}.cls-3{fill:#e6e7e8;}.cls-4{fill:#f4661e;}.cls-5{fill:#ffd248;}.cls-6{fill:#231f20;}</style></defs><circle class="cls-1" cx="210.21401" cy="210.215" r="166.99201"/><path class="cls-2" d="M447.232,167.118v16.161a10.80788,10.80788,0,0,1-10.775,10.773H339.495a10.80851,10.80851,0,0,1-10.775-10.773V167.118a10.80723,10.80723,0,0,1,10.775-10.773h96.961A10.80807,10.80807,0,0,1,447.232,167.118Z" transform="translate(-37.707)"/><rect class="cls-3" x="274.85699" y="441.83899" width="150.82602" height="59.258"/><polygon class="cls-3" points="323.335 247.92 323.335 194.052 377.203 194.052 377.203 247.92 425.684 247.92 425.684 301.787 274.855 301.787 274.855 247.92 323.335 247.92"/><rect class="cls-4" x="274.85699" y="301.78299" width="150.82602" height="140.056"/><path class="cls-5" d="M220.986,70.154a37.7085,37.7085,0,1,1-37.708,37.709A37.75448,37.75448,0,0,1,220.986,70.154Z" transform="translate(-37.707)"/><path class="cls-6" d="M59.51,210.211c0-103.89,84.52-188.409,188.411-188.409A188.01349,188.01349,0,0,1,415.367,123.655l19.354-10.037A210.27061,210.27061,0,1,0,247.92,420.424V398.622a188.01094,188.01094,0,0,1-141.707-64.387H285.628V312.433H89.724A187.29476,187.29476,0,0,1,59.51,210.211Z" transform="translate(-37.707)"/><path class="cls-6" d="M463.391,237.019h-37.58V204.953h10.646a21.69971,21.69971,0,0,0,21.676-21.674V167.118a21.69908,21.69908,0,0,0-21.676-21.674H339.496a21.69972,21.69972,0,0,0-21.676,21.674v16.161a21.69908,21.69908,0,0,0,21.676,21.674h10.646v32.066h-37.58a10.90159,10.90159,0,0,0-10.901,10.901V501.099A10.9016,10.9016,0,0,0,312.562,512h150.829a10.901,10.901,0,0,0,10.901-10.901V247.92A10.90148,10.90148,0,0,0,463.391,237.019ZM339.623,167.245h96.708l.025,15.906H339.623Zm21.419,91.576h26.934V237.019H371.943V204.953h32.066V247.92a10.90157,10.90157,0,0,0,10.901,10.901h37.58v32.065H323.463V258.821l37.579,0Zm91.448,53.867V430.942H323.463V312.688ZM323.463,490.198V452.745H452.49v37.453Z" transform="translate(-37.707)"/><path class="cls-6" d="M262.172,82.093l9.616-9.616L256.371,57.06l-9.616,9.616a48.2861,48.2861,0,0,0-14.869-6.174V43.222H210.084v17.28a48.31073,48.31073,0,0,0-14.869,6.174l-9.616-9.616L170.182,72.477l9.616,9.616a48.34027,48.34027,0,0,0-6.174,14.87H156.343v21.802h17.281a48.32066,48.32066,0,0,0,6.174,14.869l-9.616,9.616,15.417,15.417,9.616-9.616a48.31,48.31,0,0,0,14.869,6.174v17.28h21.802v-17.28a48.35938,48.35938,0,0,0,14.869-6.174l9.616,9.616,15.417-15.417-9.615-9.616a48.30822,48.30822,0,0,0,6.173-14.869h17.28V96.963h-17.28A48.306,48.306,0,0,0,262.172,82.093ZM220.986,134.67a26.8075,26.8075,0,1,1,26.807-26.807A26.83663,26.83663,0,0,1,220.986,134.67Z" transform="translate(-37.707)"/><rect class="cls-6" x="377.207" y="393.23199" width="21.547" height="21.802"/><rect class="cls-6" x="344.88501" y="393.23199" width="21.547" height="21.802"/><rect class="cls-6" x="334.104" y="360.91" width="64.64301" height="21.802"/><path class="cls-6" d="M112.7085,278.2207l16.085-1.02148q2.1328,5.06542,8.22021,5.06543a9.54851,9.54851,0,0,0,6.0874-1.95508q2.39942-1.95557,2.39942-6.13184,0-4.08837-2.39942-5.999a9.10968,9.10968,0,0,0-5.6875-1.86621,10.9341,10.9341,0,0,0-8.35351,3.64355l-13.46338-4.7539,1.86621-32.17041h45.54443v16.17383H152.56543l-1.46631-3.77686h-22.0835l-.5332,12.26367A26.13736,26.13736,0,0,1,142.65674,253.96q10.04149,0,16.61816,5.37695,6.57569,5.376,6.57617,14.752a19.43856,19.43856,0,0,1-6.93164,15.24023q-6.97632,6.0879-19.41748,6.08789-10.93066,0-18.08447-4.62109A18.86761,18.86761,0,0,1,112.7085,278.2207Z" transform="translate(-37.707)"/><path class="cls-6" d="M176.38184,263.60254q0-15.15234,7.86474-23.46143,7.86476-8.35326,18.70654-8.35351a24.424,24.424,0,0,1,18.97315,8.62011q7.64209,8.62062,7.64258,23.19483,0,15.3296-7.90918,23.5498a25.04739,25.04739,0,0,1-18.70655,8.26465,24.37473,24.37473,0,0,1-18.92871-8.62011Q176.3816,278.22168,176.38184,263.60254Zm20.12841,0q0,11.59716,1.73291,15.15137,1.73292,3.59911,4.79883,3.59961,3.10986,0,4.7544-3.77735,1.64355-3.687,1.644-14.97363,0-11.7312-1.73291-15.24121-1.77759-3.46582-4.7544-3.46582-2.93261,0-4.66552,3.46582Q196.51,251.87183,196.51025,263.60254Z" transform="translate(-37.707)"/><path class="cls-6" d="M239.69971,269.15625V258.09277h19.4624v-19.4624h11.01953v19.4624h19.46094v11.06348H270.18164v19.418H259.16211v-19.418Z" transform="translate(-37.707)"/></svg>