<?xml version="1.0" encoding="utf-8"?>
<!-- Generator: Adobe Illustrator 26.0.3, SVG Export Plug-In . SVG Version: 6.00 Build 0)  -->
<svg version="1.1" id="Layer_1" xmlns="http://www.w3.org/2000/svg" xmlns:xlink="http://www.w3.org/1999/xlink" x="0px" y="0px"
	 viewBox="0 0 700 700" style="enable-background:new 0 0 700 700;" xml:space="preserve">
<style type="text/css">
	.st0{fill-rule:evenodd;clip-rule:evenodd;}
</style>
<g>
	<path d="M280,269.1c-11.6,0-22.7,4.6-30.9,12.8c-8.2,8.2-12.8,19.3-12.8,30.9v26.2h227.5v-26.2c0-11.6-4.6-22.7-12.8-30.9
		c-8.2-8.2-19.3-12.8-30.9-12.8H280z"/>
	<path d="M236.2,356.6v218.7c0,7,2.8,13.6,7.7,18.6c4.9,4.9,11.6,7.7,18.6,7.7h175c7,0,13.6-2.8,18.6-7.7c4.9-4.9,7.7-11.6,7.7-18.6
		V356.6H236.2z M350,417.8c2.3,0,4.5,0.9,6.2,2.6s2.6,3.9,2.6,6.2s-0.9,4.5-2.6,6.2s-3.9,2.6-6.2,2.6s-4.5-0.9-6.2-2.6
		s-2.6-3.9-2.6-6.2s0.9-4.5,2.6-6.2S347.7,417.8,350,417.8z M315.1,435.3c2.3,0,4.4,1,6.1,2.6c3.4,3.4,3.4,9,0,12.4
		c-3.4,3.4-9,3.4-12.4,0c-3.4-3.4-3.4-9,0-12.4C310.5,436.2,312.8,435.3,315.1,435.3z M384.9,435.3c2.4,0,4.6,0.9,6.3,2.6
		c3.4,3.4,3.4,9,0,12.4c-3.4,3.4-9,3.4-12.4,0c-3.4-3.4-3.4-9,0-12.4C380.4,436.3,382.6,435.4,384.9,435.3z M350,449.8
		c7.8,0,15.2,3.1,20.7,8.6c5.5,5.5,8.6,12.9,8.6,20.7c0,7.8-3.1,15.2-8.6,20.7c-5.5,5.5-12.9,8.6-20.7,8.6c-7.8,0-15.2-3.1-20.7-8.6
		c-5.5-5.5-8.6-12.9-8.6-20.7c0-7.8,3.1-15.2,8.6-20.7C334.8,452.9,342.2,449.8,350,449.8L350,449.8z M297.5,470.3L297.5,470.3
		c2.3,0,4.5,0.9,6.2,2.6c1.6,1.6,2.6,3.9,2.6,6.2s-0.9,4.5-2.6,6.2s-3.9,2.6-6.2,2.6s-4.5-0.9-6.2-2.6s-2.6-3.9-2.6-6.2
		s0.9-4.5,2.6-6.2C293,471.2,295.2,470.3,297.5,470.3L297.5,470.3z M402.5,470.3L402.5,470.3c2.3,0,4.5,0.9,6.2,2.6
		c1.6,1.6,2.6,3.9,2.6,6.2s-0.9,4.5-2.6,6.2s-3.9,2.6-6.2,2.6s-4.5-0.9-6.2-2.6s-2.6-3.9-2.6-6.2s0.9-4.5,2.6-6.2
		C398,471.2,400.2,470.3,402.5,470.3L402.5,470.3z M314.9,505.3L314.9,505.3c2.4,0,4.6,0.9,6.3,2.6c3.4,3.4,3.4,9,0,12.4
		c-3.4,3.4-9,3.4-12.4,0c-3.4-3.4-3.4-9,0-12.4C310.4,506.3,312.6,505.4,314.9,505.3L314.9,505.3z M385.1,505.3L385.1,505.3
		c2.3,0,4.4,1,6.1,2.6c3.4,3.4,3.4,9,0,12.4c-3.4,3.4-9,3.4-12.4,0c-3.4-3.4-3.4-9,0-12.4C380.5,506.2,382.8,505.3,385.1,505.3
		L385.1,505.3z M350,522.8L350,522.8c2.3,0,4.5,0.9,6.2,2.6s2.6,3.9,2.6,6.2c0,4.8-3.9,8.7-8.8,8.7s-8.8-3.9-8.8-8.7
		c0-2.3,0.9-4.5,2.6-6.2C345.5,523.7,347.7,522.8,350,522.8L350,522.8z"/>
	<path class="st0" d="M331.9,98.4c-4.6,0.3-8.1,4.1-8.1,8.7v26.2v0c0,2.3,0.9,4.5,2.6,6.2c1.6,1.6,3.9,2.6,6.2,2.6v30.6h35v-30.6
		h2.9c3.8,0,7.5-1.2,10.5-3.5l4.6-3.5c5.3-4,11.8-6.1,18.4-6.1h33.5c4.8,0,8.8-3.9,8.8-8.7v-13.1c0-2.3-0.9-4.5-2.6-6.2
		c-1.6-1.6-3.9-2.6-6.2-2.6h-105C332.3,98.4,332.1,98.4,331.9,98.4L331.9,98.4z"/>
	<path class="st0" d="M315,251.6v-43.8c0-9.7,7.8-17.5,17.5-17.5h35c9.7,0,17.5,7.8,17.5,17.5v43.8"/>
</g>
</svg>
